<svg width="400" height="400" viewBox="0 0 400 400" fill="none" xmlns="http://www.w3.org/2000/svg">
<rect width="400" height="400" fill="white"/>
<path fill-rule="evenodd" clip-rule="evenodd" d="M107.434 32.034C83.6538 36.327 67.0398 54.123 63.8218 78.749C63.2448 83.169 63.0368 142.071 63.5738 149.04L63.8068 152.056L64.8498 150.47C69.2438 143.788 76.2819 136.948 84.2579 131.606L87.5508 129.401L87.6638 104.111C87.7758 79.071 87.7848 78.794 88.5808 76.201C97.9408 45.666 141.352 49.654 144.79 81.364C145.556 88.43 145.039 138.634 144.16 142.449C140.581 157.993 129.165 169.408 116.262 170.341C107.617 170.966 100.519 179.085 99.8409 189.123L99.6339 192.187L103.168 193.129C117.078 196.838 131.113 194.025 142.829 185.18L144.668 183.791L144.897 187.248C145.254 192.641 145.162 212.039 144.757 216.801C143.189 235.23 131.832 248.386 115.774 250.374C106.652 251.503 99.3018 260.624 99.8048 270.19L99.9109 272.207L102.635 272.982C130.932 281.027 160.45 259.899 167.892 226.273L168.881 221.805L168.992 151.385C169.114 74.506 169.2 78.18 167.094 70.126C160.323 44.226 133.78 27.278 107.434 32.034ZM154.781 31.592C154.781 31.667 155.626 32.367 156.658 33.148C163.053 37.986 169.289 45.562 173.155 53.191L174.096 55.049H201.615H229.133L229.178 76.229C229.202 87.878 229.198 103.199 229.168 110.277C229.077 131.99 229.909 134.986 236.954 138.289L238.963 139.231L275.782 139.41L312.601 139.589L312.691 242.176C312.79 355.897 312.987 346.544 310.435 349.526C309.748 350.328 308.265 351.436 307.14 351.989L305.094 352.994L239.803 353.087L174.513 353.18L172.464 356.797C168.721 363.409 163.19 369.874 156.39 375.585L154.602 377.086L230.248 377.104C313.34 377.124 309.021 377.233 314.868 374.978C325.002 371.07 332.637 362.494 335.871 351.385C336.819 348.132 337.13 127.264 336.193 123.525C334.636 117.316 335.488 118.299 304.74 87.221C247.217 29.078 252.225 33.84 246.879 32.206C244.641 31.521 154.781 30.923 154.781 31.592ZM290.971 107.688L298.296 115.103H275.868H253.441L253.442 92.493L253.443 69.884L268.544 85.079C276.85 93.436 286.942 103.61 290.971 107.688ZM112.112 133.702C87.0728 137.658 68.8938 156.945 64.1098 184.629C63.3748 188.878 62.9048 316.038 63.5868 326.005C64.7458 342.955 72.3258 357.12 85.4328 366.831C116.25 389.663 160.197 372.51 168.05 334.584L168.901 330.474V296.872C168.901 263.483 168.79 259.928 167.687 257.835C167.55 257.574 166.63 258.528 165.356 260.252C161.545 265.41 153.7 272.69 147.743 276.597L145.172 278.282L145.045 303.484C144.92 328.078 144.898 328.755 144.136 331.546C135.753 362.248 92.5748 359.101 87.7428 327.435C87.1028 323.238 86.9818 276.246 87.5958 270.19C89.4518 251.89 100.374 239.545 116.467 237.557C124.888 236.517 131.202 229.38 132.594 219.326C133.076 215.847 133.293 216.067 128.09 214.76C115.455 211.587 102.49 214.11 90.0388 222.165L87.5779 223.757V206.474C87.5779 187.909 87.7318 185.82 89.4818 180.697C93.9108 167.729 104.097 158.863 115.974 157.64C124.955 156.716 131.57 149.11 132.787 138.309L133.012 136.314L130.364 135.544C124.05 133.71 116.734 132.971 112.112 133.702Z" fill="#0B39A6"/>
</svg>
